<?xml version="1.0" standalone="no"?>
<!DOCTYPE svg PUBLIC "-//W3C//DTD SVG 20010904//EN"
 "http://www.w3.org/TR/2001/REC-SVG-20010904/DTD/svg10.dtd">
<svg version="1.0" xmlns="http://www.w3.org/2000/svg"
 width="440.000000pt" height="440.000000pt" viewBox="0 0 440.000000 440.000000"
 preserveAspectRatio="xMidYMid meet">
<metadata>
Created by potrace 1.11, written by Peter Selinger 2001-2013
</metadata>
<g transform="translate(0.000000,440.000000) scale(0.100000,-0.100000)"
fill="#000000" stroke="none">
<path d="M1044 3395 c-29 -10 -76 -37 -101 -59 -7 -6 -19 -17 -27 -24 -9 -6
-39 -15 -68 -18 -45 -5 -147 -25 -198 -38 -67 -19 -200 -76 -200 -87 0 -4 -10
-11 -21 -14 -36 -12 -117 -101 -130 -143 -10 -36 -9 -122 4 -167 29 -107 114
-210 231 -281 46 -28 189 -82 233 -88 10 -2 23 -24 34 -58 9 -31 25 -70 33
-86 20 -38 20 -42 1 -42 -8 0 -15 -4 -15 -10 0 -5 -3 -9 -7 -8 -34 7 -136 -80
-189 -162 -16 -25 -31 -47 -34 -50 -11 -10 -71 -130 -65 -130 3 0 -1 -10 -9
-22 -18 -28 -74 -188 -81 -231 -14 -80 -27 -104 -85 -162 -34 -33 -65 -69 -69
-80 -5 -12 -27 -29 -49 -40 -37 -18 -39 -21 -30 -48 7 -20 19 -30 42 -35 17
-3 34 -5 39 -4 4 1 7 -2 7 -7 0 -12 86 -41 96 -33 3 4 4 -17 0 -45 -20 -155
-17 -191 15 -197 42 -8 75 -20 80 -29 12 -17 58 2 63 26 2 12 12 69 21 127 27
169 36 181 140 194 28 4 75 11 105 17 30 7 60 12 65 13 6 1 20 6 33 10 26 9
83 -14 120 -47 12 -11 22 -18 22 -15 0 4 23 0 50 -7 38 -10 59 -11 88 -2 20 6
41 10 46 8 12 -3 74 -10 97 -10 12 -1 15 -11 14 -46 0 -24 -3 -46 -6 -49 -6
-7 -54 -16 -113 -22 -84 -9 -141 -40 -147 -80 -9 -62 47 -97 171 -107 19 -2
40 -5 45 -8 21 -10 177 0 275 18 80 14 120 48 120 102 0 31 -58 66 -125 75
-16 2 -55 7 -86 11 l-57 8 -1 36 c-1 20 -2 44 -2 53 0 10 11 30 25 45 34 36
50 86 43 134 -5 38 -26 69 -46 69 -24 0 -8 37 39 91 61 71 100 135 100 169 1
51 12 71 55 90 47 22 99 71 117 111 10 23 19 28 48 28 74 0 137 31 167 82 10
16 21 29 25 29 9 0 3 126 -8 155 -4 11 -11 22 -16 26 -4 3 2 17 14 32 12 15
23 33 24 40 2 6 6 23 10 37 6 23 7 53 4 135 -1 16 4 31 9 33 6 2 9 7 7 11 -3
3 4 18 15 31 l19 25 0 -30 c0 -16 -5 -70 -10 -120 -5 -49 -13 -123 -16 -164
-3 -40 -13 -89 -21 -108 -8 -19 -9 -32 -4 -28 6 3 11 1 11 -4 0 -6 15 -11 33
-11 l32 0 0 68 c1 37 5 99 9 137 5 39 10 86 12 105 2 19 6 53 8 75 3 22 8 69
11 105 3 36 10 69 15 74 26 26 2 58 -45 60 -15 0 -20 -6 -21 -24 0 -14 -12
-43 -26 -65 -13 -22 -30 -50 -37 -62 -20 -38 -38 -27 -49 29 -7 36 -7 57 1 69
17 28 1 49 -37 49 -32 0 -34 -2 -32 -27 2 -15 0 -41 -5 -58 -4 -16 -10 -41
-13 -55 -3 -14 -12 -52 -21 -85 -8 -33 -18 -76 -21 -95 -3 -19 -12 -50 -20
-70 -13 -31 -19 -36 -47 -35 -57 3 -99 -23 -132 -80 -8 -14 -23 -17 -64 -17
-29 1 -57 4 -62 7 -12 8 -12 48 1 61 8 8 7 25 -1 56 -17 63 -3 109 36 123 17
5 35 13 40 18 6 4 40 29 76 56 171 127 266 301 227 414 -17 47 -98 119 -182
160 -112 55 -239 86 -429 102 -49 5 -62 10 -90 40 -40 43 -108 66 -153 50z
m902 -789 c3 -13 -2 -41 -11 -62 -9 -21 -18 -61 -20 -89 -2 -27 -4 -51 -5 -53
0 -1 -9 2 -19 8 -16 8 -18 15 -11 39 4 16 6 32 2 35 -3 3 0 6 7 6 7 0 11 6 8
14 -3 8 -3 17 1 21 4 4 7 10 8 13 13 90 28 115 40 68z m24 -147 c0 -5 -4 -9
-8 -9 -5 0 -9 7 -9 15 0 8 4 12 9 9 4 -3 8 -9 8 -15z m-990 -56 c0 -9 -15 -29
-32 -45 -29 -26 -33 -27 -39 -11 -3 10 -5 25 -3 33 1 8 3 21 3 28 1 7 15 12
36 12 26 0 35 -4 35 -17z m337 -820 c18 -27 3 -37 -25 -17 -12 8 -19 21 -15
30 7 19 22 14 40 -13z m43 1 c0 -8 -19 -13 -24 -6 -3 5 1 9 9 9 8 0 15 -2 15
-3z"/>
<path d="M2602 2800 c-24 -38 -29 -56 -23 -72 5 -13 5 -35 1 -50 -5 -14 -5
-30 -2 -34 4 -4 -2 -4 -13 0 -46 18 -76 11 -102 -23 -40 -53 -84 -190 -84
-261 1 -63 9 -114 20 -118 6 -2 11 -10 11 -17 0 -30 56 -38 89 -13 18 14 27
15 37 7 28 -23 45 -2 41 48 -2 27 0 65 5 86 4 20 11 54 13 75 6 37 10 63 20
112 3 14 8 43 10 65 4 40 12 80 15 80 3 0 12 78 14 119 0 22 -4 41 -10 43 -6
2 -25 -19 -42 -47z m-48 -259 c-3 -20 -10 -65 -16 -101 -6 -36 -11 -72 -13
-80 -7 -49 -57 -102 -77 -82 -15 15 -12 137 5 202 10 41 40 97 60 112 20 16
23 16 34 1 7 -9 10 -31 7 -52z"/>
<path d="M3243 2827 c-3 -6 -7 -33 -8 -61 -1 -28 -5 -62 -8 -76 -4 -14 -9 -43
-12 -64 -3 -21 -7 -48 -10 -60 -2 -12 -6 -39 -9 -61 -12 -98 -53 -222 -78
-233 -4 -2 -1 -17 7 -33 16 -29 38 -38 50 -19 9 15 44 12 61 -5 31 -30 64 -30
93 1 15 16 28 32 29 37 1 4 9 24 18 45 l16 37 12 -30 c7 -16 11 -34 9 -38 -7
-11 48 -68 59 -61 4 3 8 1 8 -4 0 -22 72 2 89 30 30 48 48 85 56 113 5 17 9
33 10 38 2 4 4 8 5 10 1 1 4 36 5 77 3 58 -1 84 -16 114 -18 38 -51 69 -77 72
-19 3 -72 -29 -72 -43 0 -7 -4 -13 -9 -13 -8 0 -52 -97 -67 -150 l-7 -25 -13
31 c-17 42 -39 57 -69 50 -30 -8 -45 -34 -51 -91 -4 -35 -1 -47 17 -64 19 -17
23 -18 36 -5 9 9 12 24 9 42 -7 30 6 58 23 48 14 -9 7 -86 -13 -124 -21 -41
-49 -49 -82 -23 -15 11 -30 18 -35 15 -5 -3 -9 0 -9 5 0 16 24 105 30 111 3 3
6 25 8 50 2 24 7 49 12 55 6 7 8 14 5 17 -4 4 7 76 19 133 2 6 6 31 11 58 4
26 11 47 15 47 10 0 7 20 -5 40 -11 17 -53 22 -62 7z m343 -279 c4 -13 8 -40
9 -61 1 -20 5 -40 8 -43 3 -3 1 -18 -4 -33 -6 -14 -10 -26 -9 -26 3 0 -12 -42
-23 -64 -16 -33 -60 -63 -79 -56 -45 18 -55 146 -18 233 38 88 95 113 116 50z"/>
<path d="M2245 2649 c-4 -5 -11 -7 -16 -4 -12 8 -49 -54 -49 -83 0 -13 5 -32
11 -43 7 -15 7 -24 -2 -35 -6 -8 -8 -14 -4 -14 5 0 1 -8 -7 -17 -36 -42 -49
-139 -27 -202 6 -18 24 -38 40 -47 26 -13 32 -13 50 0 14 9 34 12 55 9 28 -5
34 -3 35 13 0 11 2 35 4 54 2 19 6 86 9 149 5 143 -14 202 -76 224 -10 3 -20
2 -23 -4z m37 -54 c4 -5 8 -20 8 -32 0 -13 4 -23 9 -23 5 0 7 -9 4 -19 -8 -32
-37 -5 -49 44 -8 35 -7 42 6 41 8 -1 18 -5 22 -11z m9 -158 c9 -15 8 -24 -5
-84 -8 -35 -25 -62 -48 -74 -38 -21 -52 19 -34 100 5 21 14 36 41 67 13 15 35
11 46 -9z"/>
<path d="M2750 2635 l-24 -25 -22 21 -22 21 -12 -22 c-8 -15 -8 -30 -2 -49 6
-17 7 -46 1 -75 -5 -26 -8 -50 -8 -54 1 -4 0 -9 -1 -12 -3 -10 -10 -45 -16
-90 -3 -25 -6 -52 -8 -62 -1 -9 -8 -23 -14 -31 -17 -20 -5 -44 24 -50 28 -5
45 11 43 44 -1 22 2 50 16 119 3 14 7 43 10 65 7 65 14 88 30 104 13 14 17 13
31 -8 12 -16 23 -21 39 -17 l22 6 -14 -63 c-9 -37 -13 -89 -10 -129 3 -46 0
-76 -10 -95 -26 -50 -26 -89 -1 -107 27 -19 38 -7 32 37 -5 41 13 63 35 44 9
-8 27 -13 41 -11 14 2 31 5 38 6 6 1 12 4 12 8 0 3 9 16 21 28 11 13 23 38 26
57 5 31 3 35 -16 35 -11 0 -21 -5 -21 -11 0 -29 -61 -57 -78 -36 -9 10 -5 24
16 58 15 24 36 60 45 79 10 19 22 42 27 50 5 8 23 39 40 68 l30 53 -36 33
c-19 18 -43 32 -52 31 -34 -3 -62 -17 -62 -31 0 -8 -5 -14 -10 -14 -6 0 -18
-18 -27 -40 -18 -41 -27 -48 -38 -30 -3 6 -1 10 5 10 6 0 8 5 5 10 -3 6 -2 10
4 10 16 0 -9 59 -32 75 -28 20 -29 19 -57 -10z m218 -57 c-9 -40 -13 -53 -18
-58 -3 -3 -20 -35 -38 -72 -18 -38 -37 -68 -42 -68 -11 0 -7 46 9 98 5 18 10
35 10 37 2 16 34 66 48 74 28 16 36 13 31 -11z"/>
<path d="M3759 2631 c-42 -35 -90 -135 -93 -192 0 -21 -4 -39 -7 -39 -4 0 -5
-29 -4 -65 5 -98 58 -159 119 -135 51 19 101 130 58 130 -10 0 -24 -11 -32
-24 -7 -14 -24 -27 -37 -31 -40 -10 -53 18 -48 100 6 90 7 95 16 95 4 0 6 9 4
20 -2 11 3 26 11 35 8 8 14 17 13 21 -3 11 25 44 38 44 7 0 13 5 13 10 0 19
21 10 29 -12 12 -31 -5 -47 -23 -22 -22 29 -39 5 -40 -55 -1 -39 3 -53 19 -64
24 -19 65 -3 65 25 0 11 4 17 9 13 6 -3 8 3 6 14 -2 11 0 33 4 48 9 32 4 56
-10 48 -5 -4 -6 0 -4 8 6 15 -20 42 -50 51 -14 4 -32 -3 -56 -23z"/>
<path d="M3950 2635 c-29 -31 -42 -89 -25 -112 14 -18 4 -54 -22 -81 -7 -7
-13 -21 -14 -30 0 -9 -3 -26 -6 -37 -5 -19 -6 -89 -2 -120 3 -22 45 -58 71
-59 13 0 32 8 42 18 13 13 21 16 24 8 2 -7 15 -12 28 -12 22 0 24 4 22 43 -1
23 2 69 6 102 8 65 9 158 2 190 -2 11 -5 25 -5 32 -2 21 -58 79 -79 80 -11 1
-30 -9 -42 -22z m76 -72 c15 -51 5 -71 -21 -43 -10 11 -16 23 -12 26 3 3 2 16
-3 29 -5 13 -6 26 -2 29 13 13 27 -2 38 -41z m4 -128 c9 -25 -8 -105 -26 -126
-8 -9 -11 -19 -7 -24 5 -4 2 -5 -4 -1 -7 4 -13 2 -13 -3 0 -17 -37 -13 -44 5
-3 9 -6 34 -6 58 0 73 81 146 100 91z"/>
<path d="M3903 1973 c9 -2 23 -2 30 0 6 3 -1 5 -18 5 -16 0 -22 -2 -12 -5z"/>
<path d="M4188 1968 c5 -5 16 -8 23 -6 8 3 3 7 -10 11 -17 4 -21 3 -13 -5z"/>
<path d="M4064 1674 l-69 -36 45 7 c39 5 130 48 130 60 0 14 -44 1 -106 -31z"/>
</g>
</svg>
